<svg width="512" height="512" viewBox="0 0 512 512" xmlns="http://www.w3.org/2000/svg">
  <!-- Background circle with gradient -->
  <defs>
    <linearGradient id="bgGradient" x1="0%" y1="0%" x2="100%" y2="100%">
      <stop offset="0%" style="stop-color:#4CAF50;stop-opacity:1" />
      <stop offset="100%" style="stop-color:#2E7D32;stop-opacity:1" />
    </linearGradient>
    <linearGradient id="wheatGradient" x1="0%" y1="0%" x2="100%" y2="100%">
      <stop offset="0%" style="stop-color:#FFD700;stop-opacity:1" />
      <stop offset="100%" style="stop-color:#FF8F00;stop-opacity:1" />
    </linearGradient>
    <linearGradient id="leafGradient" x1="0%" y1="0%" x2="100%" y2="100%">
      <stop offset="0%" style="stop-color:#8BC34A;stop-opacity:1" />
      <stop offset="100%" style="stop-color:#4CAF50;stop-opacity:1" />
    </linearGradient>
  </defs>
  
  <!-- Background circle -->
  <circle cx="256" cy="256" r="240" fill="url(#bgGradient)" stroke="#1B5E20" stroke-width="8"/>
  
  <!-- Wheat stalks -->
  <!-- Left wheat stalk -->
  <path d="M180 400 L180 200" stroke="#8D6E63" stroke-width="6" fill="none"/>
  <path d="M175 200 Q180 190 185 200" stroke="#FFD700" stroke-width="4" fill="none"/>
  <path d="M175 220 Q180 210 185 220" stroke="#FFD700" stroke-width="4" fill="none"/>
  <path d="M175 240 Q180 230 185 240" stroke="#FFD700" stroke-width="4" fill="none"/>
  <path d="M175 260 Q180 250 185 260" stroke="#FFD700" stroke-width="4" fill="none"/>
  <path d="M175 280 Q180 270 185 280" stroke="#FFD700" stroke-width="4" fill="none"/>
  
  <!-- Center wheat stalk -->
  <path d="M256 400 L256 180" stroke="#8D6E63" stroke-width="8" fill="none"/>
  <path d="M250 180 Q256 165 262 180" stroke="#FFD700" stroke-width="5" fill="none"/>
  <path d="M250 200 Q256 185 262 200" stroke="#FFD700" stroke-width="5" fill="none"/>
  <path d="M250 220 Q256 205 262 220" stroke="#FFD700" stroke-width="5" fill="none"/>
  <path d="M250 240 Q256 225 262 240" stroke="#FFD700" stroke-width="5" fill="none"/>
  <path d="M250 260 Q256 245 262 260" stroke="#FFD700" stroke-width="5" fill="none"/>
  <path d="M250 280 Q256 265 262 280" stroke="#FFD700" stroke-width="5" fill="none"/>
  
  <!-- Right wheat stalk -->
  <path d="M332 400 L332 200" stroke="#8D6E63" stroke-width="6" fill="none"/>
  <path d="M327 200 Q332 190 337 200" stroke="#FFD700" stroke-width="4" fill="none"/>
  <path d="M327 220 Q332 210 337 220" stroke="#FFD700" stroke-width="4" fill="none"/>
  <path d="M327 240 Q332 230 337 240" stroke="#FFD700" stroke-width="4" fill="none"/>
  <path d="M327 260 Q332 250 337 260" stroke="#FFD700" stroke-width="4" fill="none"/>
  <path d="M327 280 Q332 270 337 280" stroke="#FFD700" stroke-width="4" fill="none"/>
  
  <!-- Leaves -->
  <path d="M200 320 Q220 300 240 320" stroke="url(#leafGradient)" stroke-width="8" fill="none"/>
  <path d="M272 320 Q292 300 312 320" stroke="url(#leafGradient)" stroke-width="8" fill="none"/>
  <path d="M220 350 Q240 330 260 350" stroke="url(#leafGradient)" stroke-width="6" fill="none"/>
  <path d="M252 350 Q272 330 292 350" stroke="url(#leafGradient)" stroke-width="6" fill="none"/>
  
  <!-- Ground/soil -->
  <ellipse cx="256" cy="420" rx="200" ry="40" fill="#8D6E63" opacity="0.8"/>
  <ellipse cx="256" cy="410" rx="180" ry="30" fill="#A1887F" opacity="0.6"/>
  
  <!-- Sun rays -->
  <circle cx="256" cy="120" r="25" fill="#FFD700" opacity="0.9"/>
  <line x1="256" y1="60" x2="256" y2="80" stroke="#FFD700" stroke-width="4"/>
  <line x1="256" y1="160" x2="256" y2="180" stroke="#FFD700" stroke-width="4"/>
  <line x1="200" y1="120" x2="220" y2="120" stroke="#FFD700" stroke-width="4"/>
  <line x1="292" y1="120" x2="312" y2="120" stroke="#FFD700" stroke-width="4"/>
  <line x1="220" y1="80" x2="235" y2="95" stroke="#FFD700" stroke-width="4"/>
  <line x1="277" y1="95" x2="292" y2="80" stroke="#FFD700" stroke-width="4"/>
  <line x1="220" y1="160" x2="235" y2="145" stroke="#FFD700" stroke-width="4"/>
  <line x1="277" y1="145" x2="292" y2="160" stroke="#FFD700" stroke-width="4"/>
  
  <!-- Small decorative elements -->
  <circle cx="150" cy="150" r="3" fill="#FFD700" opacity="0.7"/>
  <circle cx="362" cy="150" r="3" fill="#FFD700" opacity="0.7"/>
  <circle cx="120" cy="250" r="2" fill="#FFD700" opacity="0.6"/>
  <circle cx="392" cy="250" r="2" fill="#FFD700" opacity="0.6"/>
</svg>
